<?xml version="1.0" encoding="UTF-8" standalone="no"?>
<!DOCTYPE svg PUBLIC "-//W3C//DTD SVG 1.1//EN" "http://www.w3.org/Graphics/SVG/1.1/DTD/svg11.dtd">
<svg width="100%" height="100%" viewBox="0 0 60 74" version="1.1" xmlns="http://www.w3.org/2000/svg" xmlns:xlink="http://www.w3.org/1999/xlink" xml:space="preserve" xmlns:serif="http://www.serif.com/" style="fill-rule:evenodd;clip-rule:evenodd;stroke-linejoin:round;stroke-miterlimit:2;">
    <g transform="matrix(1,0,0,1,-1561.73,-140.702)">
        <path d="M1592.11,140.702L1594.14,170.536C1594.23,171.85 1594.7,173.083 1595.46,174.016C1596.21,174.948 1597.21,175.521 1598.28,175.631L1622.49,178.137L1598.28,180.643C1597.21,180.753 1596.21,181.325 1595.46,182.258C1594.7,183.191 1594.23,184.423 1594.14,185.738L1592.11,215.572L1590.08,185.738C1589.99,184.423 1589.52,183.191 1588.77,182.258C1588.01,181.325 1587.01,180.753 1585.94,180.643L1561.73,178.137L1585.94,175.631C1587.01,175.521 1588.01,174.948 1588.77,174.016C1589.52,173.083 1589.99,171.85 1590.08,170.536L1592.11,140.702Z" style="fill:white;"/>
    </g>
</svg>
