<?xml version="1.0" encoding="UTF-8" standalone="no"?>
<!DOCTYPE svg PUBLIC "-//W3C//DTD SVG 1.1//EN" "http://www.w3.org/Graphics/SVG/1.1/DTD/svg11.dtd">
<svg width="100%" height="100%" viewBox="0 0 95 42" version="1.1" xmlns="http://www.w3.org/2000/svg" xmlns:xlink="http://www.w3.org/1999/xlink" xml:space="preserve" xmlns:serif="http://www.serif.com/" style="fill-rule:evenodd;clip-rule:evenodd;stroke-linejoin:round;stroke-miterlimit:2;">
    <g transform="matrix(1.82156,0,0,2.17976,-1315.77,-2514.74)">
        <path d="M724.835,1172.43C724.835,1172.43 728.419,1173.62 734.051,1172.77C739.683,1171.92 738.116,1172.15 738.116,1172.15C738.116,1172.15 756.238,1171.58 763.406,1171.58C770.574,1171.58 777.571,1167.14 773.987,1162.53C770.403,1157.92 760.675,1151.61 756.067,1154.34C751.459,1157.07 749.923,1162.36 749.923,1162.36C749.923,1162.36 743.267,1158.26 738.488,1161.68C733.71,1165.09 733.539,1167.48 733.539,1167.48C733.539,1167.48 715.96,1168.85 724.835,1172.43Z" style="fill:rgb(26,60,98);"/>
        <clipPath id="_clip1">
            <path d="M724.835,1172.43C724.835,1172.43 728.419,1173.62 734.051,1172.77C739.683,1171.92 738.116,1172.15 738.116,1172.15C738.116,1172.15 756.238,1171.58 763.406,1171.58C770.574,1171.58 777.571,1167.14 773.987,1162.53C770.403,1157.92 760.675,1151.61 756.067,1154.34C751.459,1157.07 749.923,1162.36 749.923,1162.36C749.923,1162.36 743.267,1158.26 738.488,1161.68C733.71,1165.09 733.539,1167.48 733.539,1167.48C733.539,1167.48 715.96,1168.85 724.835,1172.43Z"/>
        </clipPath>
        <g clip-path="url(#_clip1)">
            <g transform="matrix(0.54898,0,0,0.458765,22.1281,909.668)">
                <path d="M1295.8,561.408L1298.15,556.758C1299.16,554.522 1300.55,552.545 1302.3,550.925C1303.49,549.824 1304.84,548.916 1306.23,548.192C1307.69,547.432 1309.22,546.899 1310.68,546.516C1313.4,545.809 1315.91,545.653 1317.78,545.871C1318.22,545.883 1318.58,546.255 1318.56,546.702C1318.55,547.148 1318.18,547.501 1317.73,547.489C1315.14,547.612 1311.45,549.022 1307.79,551.099C1306.59,551.779 1305.39,552.498 1304.22,553.312C1302.48,554.524 1300.8,555.813 1299.48,557.551C1299.2,557.906 1298.63,558.634 1297.73,559.578C1297.19,560.137 1296.56,560.742 1295.8,561.408Z" style="fill:rgb(63,154,191);"/>
            </g>
        </g>
    </g>
</svg>
