<?xml version="1.0" encoding="UTF-8" standalone="no"?>
<!DOCTYPE svg PUBLIC "-//W3C//DTD SVG 1.1//EN" "http://www.w3.org/Graphics/SVG/1.1/DTD/svg11.dtd">
<svg width="100%" height="100%" viewBox="0 0 440 219" version="1.1" xmlns="http://www.w3.org/2000/svg" xmlns:xlink="http://www.w3.org/1999/xlink" xml:space="preserve" xmlns:serif="http://www.serif.com/" style="fill-rule:evenodd;clip-rule:evenodd;stroke-linejoin:round;stroke-miterlimit:2;">
    <g transform="matrix(1,0,0,1,-246.155,-185.21)">
        <path d="M429.213,331.091C428.878,335.441 427.757,339.383 428.14,343.859C429.188,356.124 437.619,370.577 451.592,369.899C455.258,369.721 459.142,368.675 462.166,366.537C462.888,366.027 466.106,361.972 466.916,362.134C467.337,362.218 467.434,363.537 467.5,363.823C467.994,365.964 468.911,368.016 469.946,369.946C472.715,375.109 477.177,379.108 482.604,381.325C489.831,384.278 497.119,383.099 503.167,378.169C505.011,376.666 506.526,374.872 507.902,372.945C508.146,372.604 509.072,370.849 509.559,370.814C509.753,370.801 510.509,374.351 510.601,374.634C511.401,377.088 513.046,382.133 516.345,381.972C519.289,381.829 521.143,378.605 522.09,376.196C523.533,372.528 522.668,367.121 524.71,363.854C525.478,362.626 528.274,361.947 529.397,360.809C532.62,357.541 534.417,352.536 535.079,348.088C537.707,330.432 523.893,316.947 509.543,309.438C490.484,299.464 463.331,293.449 444.285,306.803C438.92,310.564 435.186,315.828 431.88,321.385C430.851,323.115 429.213,331.091 429.213,331.091Z" style="fill:rgb(27,60,98);"/>
        <clipPath id="_clip1">
            <path d="M429.213,331.091C428.878,335.441 427.757,339.383 428.14,343.859C429.188,356.124 437.619,370.577 451.592,369.899C455.258,369.721 459.142,368.675 462.166,366.537C462.888,366.027 466.106,361.972 466.916,362.134C467.337,362.218 467.434,363.537 467.5,363.823C467.994,365.964 468.911,368.016 469.946,369.946C472.715,375.109 477.177,379.108 482.604,381.325C489.831,384.278 497.119,383.099 503.167,378.169C505.011,376.666 506.526,374.872 507.902,372.945C508.146,372.604 509.072,370.849 509.559,370.814C509.753,370.801 510.509,374.351 510.601,374.634C511.401,377.088 513.046,382.133 516.345,381.972C519.289,381.829 521.143,378.605 522.09,376.196C523.533,372.528 522.668,367.121 524.71,363.854C525.478,362.626 528.274,361.947 529.397,360.809C532.62,357.541 534.417,352.536 535.079,348.088C537.707,330.432 523.893,316.947 509.543,309.438C490.484,299.464 463.331,293.449 444.285,306.803C438.92,310.564 435.186,315.828 431.88,321.385C430.851,323.115 429.213,331.091 429.213,331.091Z"/>
        </clipPath>
        <g clip-path="url(#_clip1)">
            <path d="M427.824,355.743C427.824,355.743 447.641,358.171 453.864,348.451C456.793,343.877 455.702,335.14 455.702,335.14C455.702,335.14 458.866,341.965 471.018,344.743C483.17,347.521 491.906,341.272 491.906,341.272C491.906,341.272 500.737,361.298 522.958,357.479C523.902,357.316 525.603,355.438 526.869,356.009C526.869,356.009 530.427,362.037 531.397,361.199C537.187,356.197 538.235,339.923 538.235,336.994C538.235,333.174 526.43,307.134 512.542,303.315C498.654,299.495 447.615,285.26 441.712,290.468C435.81,295.676 405.603,340.466 427.824,355.743Z" style="fill:rgb(0,22,47);"/>
            <path d="M468.341,364.273C468.58,364.122 469.41,364.056 468.927,364.372C468.772,364.473 469.057,364.816 469.152,365.177C469.358,365.958 469.747,367.035 470.412,368.292C471.395,370.152 472.981,372.372 475.676,374.427C478.477,376.563 482.413,378.514 487.893,379.815C490.775,380.505 493.731,379.997 496.573,378.808C499.5,377.583 502.189,375.491 504.794,373.309C504.996,373.14 505.196,372.971 505.421,372.834C506.016,372.471 506.546,372.231 507.199,371.993C508.038,371.688 508.482,371.715 509.337,371.484C509.292,372.285 509.378,372.622 509.179,373.406C508.961,374.262 508.593,374.931 508.102,375.672C507.754,376.197 507.29,376.628 506.837,377.064C504.984,378.847 502.811,380.248 500.638,381.414C496.231,383.777 491.486,384.811 486.945,383.657C479.16,381.662 474.224,378.479 471.11,375.299C468.853,372.995 467.476,370.701 466.77,368.772C466.262,367.382 466.037,366.196 466.024,365.357C466.016,364.806 465.935,364.333 466.123,364.135C466.872,363.346 466.366,363.615 466.825,363.655C467.027,363.249 467.521,363.085 467.927,363.287C468.294,363.471 468.464,363.894 468.341,364.273Z" style="fill:rgb(67,163,200);"/>
        </g>
        <g transform="matrix(1.94295,0,0,1.94295,-156.089,-120.742)">
            <path d="M315.614,176.845C315.614,176.845 317.169,175.067 323.391,179.067C329.613,183.067 327.835,191.289 327.835,191.289C327.835,191.289 333.613,189.289 337.835,189.289C342.057,189.289 344.723,194.177 344.723,194.177C344.723,194.177 348.056,188.622 353.389,190.4C358.723,192.178 357.834,199.955 357.834,199.955C357.834,199.955 365.833,200.844 366.056,205.955C366.278,211.066 366.547,217.266 366.547,217.266C366.547,217.266 370.722,217.065 372.5,218.176C374.277,219.287 375.116,219.812 375.116,219.812C375.116,219.812 376.277,212.399 382.499,212.621C388.721,212.843 395.832,222.176 395.165,226.842C394.498,231.509 394.272,233.096 394.272,233.096L425.83,233.287C425.83,233.287 438.941,234.175 431.163,239.286C423.386,244.397 416.053,240.175 416.053,240.175C416.053,240.175 411.164,242.619 406.276,242.619C401.387,242.619 395.61,240.175 395.61,240.175C395.61,240.175 390.943,245.508 386.721,244.397C382.499,243.286 378.113,242.132 378.113,242.132C378.113,242.132 369.611,251.063 365.389,251.063C351.612,251.063 351.834,243.508 351.834,243.508C351.834,243.508 344.723,245.73 339.612,241.953C334.502,238.175 334.502,235.509 334.502,235.509C334.502,235.509 328.946,238.397 323.613,237.064C318.28,235.731 313.836,230.398 313.836,230.398C313.836,230.398 314.28,235.953 308.725,239.509C303.17,243.064 297.392,243.286 297.392,243.286C297.392,243.286 302.503,267.507 282.726,270.174C262.95,272.84 266.949,253.952 266.949,253.952C266.949,253.952 260.505,261.952 250.284,257.285C240.062,252.619 242.506,243.286 242.506,243.286C242.506,243.286 240.506,243.508 238.284,242.175C236.062,240.842 234.428,239.861 234.428,239.861C234.428,239.861 224.285,249.508 215.619,243.508C206.953,237.509 203.744,225.199 211.175,218.176C227.396,202.844 235.395,227.509 235.395,227.509C235.395,227.509 238.506,214.399 247.395,214.843C256.283,215.288 258.505,227.287 258.505,227.287C258.505,227.287 256.506,216.399 262.727,211.954C268.949,207.51 274.727,213.288 274.727,213.288C274.727,213.288 270.949,208.621 275.171,206.399C279.393,204.177 281.171,205.732 281.171,205.732C281.171,205.732 274.06,203.51 274.505,197.511C274.505,197.511 267.838,198.177 267.838,190.4C267.838,182.623 276.282,184.622 276.282,184.622C276.282,184.622 270.283,177.734 274.06,170.845C277.838,163.957 283.837,163.735 285.171,160.846C286.504,157.957 295.17,155.513 299.614,159.735C304.059,163.957 319.391,162.846 315.614,176.845Z" style="fill:rgb(27,60,98);"/>
            <clipPath id="_clip2">
                <path d="M315.614,176.845C315.614,176.845 317.169,175.067 323.391,179.067C329.613,183.067 327.835,191.289 327.835,191.289C327.835,191.289 333.613,189.289 337.835,189.289C342.057,189.289 344.723,194.177 344.723,194.177C344.723,194.177 348.056,188.622 353.389,190.4C358.723,192.178 357.834,199.955 357.834,199.955C357.834,199.955 365.833,200.844 366.056,205.955C366.278,211.066 366.547,217.266 366.547,217.266C366.547,217.266 370.722,217.065 372.5,218.176C374.277,219.287 375.116,219.812 375.116,219.812C375.116,219.812 376.277,212.399 382.499,212.621C388.721,212.843 395.832,222.176 395.165,226.842C394.498,231.509 394.272,233.096 394.272,233.096L425.83,233.287C425.83,233.287 438.941,234.175 431.163,239.286C423.386,244.397 416.053,240.175 416.053,240.175C416.053,240.175 411.164,242.619 406.276,242.619C401.387,242.619 395.61,240.175 395.61,240.175C395.61,240.175 390.943,245.508 386.721,244.397C382.499,243.286 378.113,242.132 378.113,242.132C378.113,242.132 369.611,251.063 365.389,251.063C351.612,251.063 351.834,243.508 351.834,243.508C351.834,243.508 344.723,245.73 339.612,241.953C334.502,238.175 334.502,235.509 334.502,235.509C334.502,235.509 328.946,238.397 323.613,237.064C318.28,235.731 313.836,230.398 313.836,230.398C313.836,230.398 314.28,235.953 308.725,239.509C303.17,243.064 297.392,243.286 297.392,243.286C297.392,243.286 302.503,267.507 282.726,270.174C262.95,272.84 266.949,253.952 266.949,253.952C266.949,253.952 260.505,261.952 250.284,257.285C240.062,252.619 242.506,243.286 242.506,243.286C242.506,243.286 240.506,243.508 238.284,242.175C236.062,240.842 234.428,239.861 234.428,239.861C234.428,239.861 224.285,249.508 215.619,243.508C206.953,237.509 203.744,225.199 211.175,218.176C227.396,202.844 235.395,227.509 235.395,227.509C235.395,227.509 238.506,214.399 247.395,214.843C256.283,215.288 258.505,227.287 258.505,227.287C258.505,227.287 256.506,216.399 262.727,211.954C268.949,207.51 274.727,213.288 274.727,213.288C274.727,213.288 270.949,208.621 275.171,206.399C279.393,204.177 281.171,205.732 281.171,205.732C281.171,205.732 274.06,203.51 274.505,197.511C274.505,197.511 267.838,198.177 267.838,190.4C267.838,182.623 276.282,184.622 276.282,184.622C276.282,184.622 270.283,177.734 274.06,170.845C277.838,163.957 283.837,163.735 285.171,160.846C286.504,157.957 295.17,155.513 299.614,159.735C304.059,163.957 319.391,162.846 315.614,176.845Z"/>
            </clipPath>
            <g clip-path="url(#_clip2)">
                <g transform="matrix(0.514681,0,0,0.514681,80.3362,62.1436)">
                    <path d="M419.525,316.241C419.837,316.919 419.541,317.722 418.864,318.035C418.186,318.348 417.382,318.052 417.07,317.374C416.789,316.962 416.496,316.543 416.263,316.044C414.533,312.339 414.04,306.737 415.188,302.488C416.195,298.757 418.602,295.9 423.1,295.422C426.131,295.106 429.309,295.634 432.295,296.798C433.985,297.457 435.651,298.234 437.115,299.234C438.155,299.945 438.994,300.758 439.875,301.535C440.091,301.659 440.165,301.935 440.041,302.15C439.916,302.366 439.641,302.44 439.425,302.315C438.143,301.865 436.81,301.552 435.427,301.058C433.558,300.39 431.682,299.587 429.744,299.086C427.636,298.54 425.508,298.213 423.437,298.455C420.422,298.804 418.882,300.79 418.221,303.298C417.258,306.955 418.295,311.555 419.243,314.939C419.371,315.393 419.412,315.829 419.525,316.241Z" style="fill:rgb(67,163,200);"/>
                </g>
                <g transform="matrix(0.514681,0,0,0.514681,80.3362,62.1436)">
                    <path d="M515.689,255.01C515.462,255.237 515.094,255.237 514.868,255.01C514.641,254.784 514.641,254.416 514.868,254.189C515.686,253.184 516.597,252.195 517.67,251.353C522.057,247.912 528.143,246.595 533.314,250.571C534.547,251.519 535.761,252.776 536.824,254.451C537.634,255.727 538.363,257.246 538.982,259.02C539.386,260.18 539.774,261.439 540.033,262.836C540.36,264.61 540.484,266.526 540.578,268.682C540.608,268.845 540.501,269.002 540.338,269.032C540.175,269.062 540.018,268.954 539.987,268.791C539.319,266.797 538.565,265.09 537.906,263.46C537.13,261.543 536.398,259.872 535.648,258.406C533.542,254.295 531.258,252.011 528.672,251.132C525.071,249.908 521.316,251.352 518.152,253.352C517.292,253.895 516.449,254.408 515.689,255.01Z" style="fill:rgb(67,163,200);"/>
                </g>
                <g transform="matrix(0.514681,0,0,0.514681,78.7259,62.5096)">
                    <path d="M437.682,299.1C437.682,299.259 437.553,299.389 437.393,299.389C437.234,299.389 437.105,299.259 437.105,299.1C437.047,298.512 437.536,297.45 438.274,296.253C439.608,294.088 441.736,291.509 442.314,290.777C444.945,287.628 447.592,285.391 450.695,284.201C452.383,283.553 454.212,283.228 456.208,283.257C457.857,283.282 459.624,283.589 461.546,284.112C465.061,285.19 467.93,287.128 470.246,289.699C473.513,293.326 475.687,298.03 477.582,302.465C477.598,302.495 477.586,302.532 477.556,302.548C477.526,302.564 477.488,302.552 477.472,302.522C474.996,298.575 472.178,294.466 468.578,291.42C466.334,289.521 463.783,288.081 460.713,287.511C459.064,287.15 457.559,287.021 456.161,287.007C454.604,286.991 453.185,287.163 451.831,287.561C449.081,288.368 446.591,289.958 444.011,292.38C443.331,292.983 440.859,295.108 439.188,296.941C438.377,297.83 437.732,298.597 437.682,299.1Z" style="fill:rgb(67,163,200);"/>
                </g>
                <g transform="matrix(0.62232,0,0,0.514681,35.0037,65.2316)">
                    <path d="M381.303,397.713C380.824,397.354 380.677,396.593 380.974,396.014C381.27,395.436 381.9,395.257 382.379,395.616C383.224,396.19 384.622,396.269 386.117,396.298C388.487,396.343 391.097,396.063 392.549,395.978C399.555,395.679 405.192,393.822 409.606,390.448C411.105,389.302 412.442,387.96 413.687,386.49C414.934,385.018 416.038,383.382 417.119,381.626C418.528,379.337 419.9,376.969 421.037,374.114C421.058,374.036 421.127,373.993 421.191,374.018C421.255,374.043 421.291,374.127 421.27,374.205C420.808,377.461 420.191,380.417 419.115,383.093C418.236,385.28 417.058,387.191 415.745,388.91C414.41,390.657 412.857,392.138 411.16,393.428C406.368,397.071 400.224,399.005 392.627,399.213C390.89,399.228 387.544,399.511 384.858,399.078C383.399,398.843 382.125,398.395 381.303,397.713Z" style="fill:rgb(67,163,200);"/>
                </g>
                <g transform="matrix(0.62232,0,0,0.514681,6.75486,55.8534)">
                    <path d="M381.303,397.713C380.824,397.354 380.677,396.593 380.974,396.014C381.27,395.436 381.9,395.257 382.379,395.616C383.224,396.19 384.622,396.269 386.117,396.298C388.487,396.343 391.097,396.063 392.549,395.978C399.555,395.679 405.192,393.822 409.606,390.448C411.105,389.302 412.442,387.96 413.687,386.49C414.934,385.018 416.038,383.382 417.119,381.626C418.528,379.337 419.9,376.969 421.037,374.114C421.058,374.036 421.127,373.993 421.191,374.018C421.255,374.043 421.291,374.127 421.27,374.205C420.808,377.461 420.191,380.417 419.115,383.093C418.236,385.28 417.058,387.191 415.745,388.91C414.41,390.657 412.857,392.138 411.16,393.428C406.368,397.071 400.224,399.005 392.627,399.213C390.89,399.228 387.544,399.511 384.858,399.078C383.399,398.843 382.125,398.395 381.303,397.713Z" style="fill:rgb(67,163,200);"/>
                </g>
                <g transform="matrix(0.603878,0,0,0.64459,28.0958,19.6378)">
                    <path d="M578.18,302.598C578.205,302.534 578.225,302.451 578.239,302.378C578.212,302.467 578.162,302.547 578.095,302.612C578.055,302.62 578.027,302.629 578.038,302.65C578.039,302.653 578.041,302.655 578.042,302.658C577.939,302.737 577.807,302.785 577.664,302.785C577.334,302.785 577.067,302.534 577.067,302.225C577.062,302.121 577.228,301.734 577.792,301.513C578.69,301.162 581.06,300.522 581.253,300.465C583.565,299.784 585.679,299.517 587.804,299.658C589.874,299.796 591.946,300.339 594.219,301.262C598.068,302.904 602.337,306.376 605.274,310.937C605.9,311.909 606.474,312.927 606.935,313.997C607.616,315.58 608.151,317.241 608.346,318.964C608.556,320.835 608.368,322.691 607.934,324.587C607.768,322.728 607.238,321.024 606.645,319.301C606.123,317.782 605.517,316.311 604.777,314.901C604.279,313.951 603.749,313.024 603.169,312.136C600.466,308.003 596.752,304.712 593.273,303.169C591.284,302.244 589.456,301.673 587.611,301.446C585.702,301.211 583.78,301.327 581.65,301.807C581.459,301.85 579.117,302.308 578.222,302.588C578.209,302.592 578.195,302.595 578.18,302.598ZM578.18,302.598C578.143,302.696 578.095,302.75 578.042,302.658C578.061,302.644 578.078,302.629 578.095,302.612C578.121,302.608 578.151,302.604 578.18,302.598Z" style="fill:rgb(67,163,200);"/>
                </g>
                <g transform="matrix(0.514681,0,0,0.514681,82.737,62.4364)">
                    <path d="M466.559,285.906C467.116,283.667 468.007,281.458 469.257,279.402C470.545,277.285 472.205,275.453 474.023,273.922C474.897,273.264 476.16,272.407 477.47,271.943C478.581,271.55 479.723,271.455 480.713,271.712C482.727,272.314 484.361,273.326 485.612,274.69C487.455,276.7 488.517,279.323 489.149,281.865C489.291,282.289 489.061,282.747 488.638,282.889C488.214,283.03 487.756,282.801 487.614,282.377C486.868,280.622 485.843,278.887 484.484,277.451C483.309,276.209 481.84,275.252 479.928,274.881C479.497,274.779 479.021,274.929 478.537,275.087C477.511,275.419 476.476,275.971 475.76,276.427C473.901,277.474 472.191,278.872 470.648,280.474C469.036,282.147 467.622,283.948 466.559,285.906Z" style="fill:rgb(67,163,200);"/>
                </g>
                <g transform="matrix(0.514681,0,0,0.514681,80.3362,62.1436)">
                    <path d="M488.78,287.642C489.097,285.186 491.148,283.129 493.651,282.014C495.188,281.33 496.898,281.046 498.442,281.232C499.664,281.379 500.77,281.873 501.664,282.596C502.777,283.648 503.593,284.943 504.064,286.425C504.709,288.455 504.79,290.678 504.877,292.645C504.305,290.843 503.603,288.85 502.583,287.078C501.97,286.012 501.236,285.063 500.231,284.388C499.637,283.917 498.888,283.678 498.091,283.53C496.865,283.302 495.514,283.329 494.202,283.641C491.788,284.215 489.573,285.545 488.78,287.642Z" style="fill:rgb(67,163,200);"/>
                </g>
            </g>
        </g>
    </g>
</svg>
