<?xml version="1.0" encoding="UTF-8" standalone="no"?>
<!DOCTYPE svg PUBLIC "-//W3C//DTD SVG 1.1//EN" "http://www.w3.org/Graphics/SVG/1.1/DTD/svg11.dtd">
<svg width="100%" height="100%" viewBox="0 0 105 83" version="1.1" xmlns="http://www.w3.org/2000/svg" xmlns:xlink="http://www.w3.org/1999/xlink" xml:space="preserve" xmlns:serif="http://www.serif.com/" style="fill-rule:evenodd;clip-rule:evenodd;stroke-linejoin:round;stroke-miterlimit:2;">
    <g transform="matrix(1,0,0,1,-176.297,-373.398)">
        <path d="M176.33,432.429C176.33,432.429 181.607,431.873 193.829,435.484L206.05,439.095C206.05,439.095 216.605,453.261 229.66,456.316C242.715,459.372 252.159,451.872 253.826,441.317L255.492,430.762C255.492,430.762 275.08,444.195 280.213,427.707C289.379,398.264 256.325,402.986 256.325,402.986C256.325,402.986 263.779,374.844 247.159,373.543C215.216,371.043 228.549,401.597 228.549,401.597C228.549,401.597 224.756,399.842 222.208,400.643C219.659,401.444 217.985,407.342 217.985,407.342C217.985,407.342 216.164,398.677 210.193,401.226C204.223,403.774 205.315,415.352 205.315,415.352C205.315,415.352 202.257,415.279 200.145,417.463C198.033,419.648 198.033,422.342 198.033,422.342C198.033,422.342 193.519,420.813 190.315,422.487C187.111,424.162 183.398,428.531 183.398,428.531C183.398,428.531 175.742,429.264 176.33,432.429Z" style="fill:rgb(27,60,98);"/>
        <clipPath id="_clip1">
            <path d="M176.33,432.429C176.33,432.429 181.607,431.873 193.829,435.484L206.05,439.095C206.05,439.095 216.605,453.261 229.66,456.316C242.715,459.372 252.159,451.872 253.826,441.317L255.492,430.762C255.492,430.762 275.08,444.195 280.213,427.707C289.379,398.264 256.325,402.986 256.325,402.986C256.325,402.986 263.779,374.844 247.159,373.543C215.216,371.043 228.549,401.597 228.549,401.597C228.549,401.597 224.756,399.842 222.208,400.643C219.659,401.444 217.985,407.342 217.985,407.342C217.985,407.342 216.164,398.677 210.193,401.226C204.223,403.774 205.315,415.352 205.315,415.352C205.315,415.352 202.257,415.279 200.145,417.463C198.033,419.648 198.033,422.342 198.033,422.342C198.033,422.342 193.519,420.813 190.315,422.487C187.111,424.162 183.398,428.531 183.398,428.531C183.398,428.531 175.742,429.264 176.33,432.429Z"/>
        </clipPath>
        <g clip-path="url(#_clip1)">
            <path d="M264.552,435.268C265.175,434.857 265.793,434.783 266.426,434.846C267.743,434.977 269.075,435.829 270.54,435.468C272.983,434.906 274.886,433.171 276.415,431.017C277.719,429.18 278.646,426.993 279.315,424.842C279.787,423.321 280.157,421.825 280.265,420.451C280.619,417.285 280.416,414.808 280.01,412.794C279.255,409.048 277.823,406.847 277.53,405.07C277.432,404.635 277.705,404.201 278.14,404.102C278.575,404.003 279.009,404.276 279.108,404.712C279.618,406.457 281.4,408.465 282.535,412.153C283.212,414.354 283.618,417.117 283.5,420.685C283.385,422.374 283.044,424.255 282.369,426.097C281.748,427.788 280.883,429.454 279.805,430.933C277.503,434.092 274.355,436.442 270.718,436.683C269.049,436.765 267.754,435.643 266.352,435.217C265.781,435.044 265.201,435.006 264.552,435.268Z" style="fill:rgb(67,163,200);"/>
            <path d="M259.231,433.655C257.398,431.81 260.072,433.18 259.231,433.655ZM255.308,433.875C254.599,433.448 256.964,431.824 255.308,433.875ZM213.245,447.125C213.325,447.002 213.935,446.937 213.808,447.153C213.412,447.83 215.484,448.223 215.852,448.457C217.432,449.639 219.181,450.744 220.975,451.731C222.158,452.381 223.359,452.979 224.567,453.467C226.441,454.227 228.643,454.82 230.876,455.104C233.019,455.377 235.191,455.349 237.113,454.86C238.193,454.586 240.106,453.77 241.981,452.886C243.859,452 245.695,451.035 246.568,450.391C248.459,448.996 250.212,446.939 251.655,444.643C253.558,441.612 254.793,438.126 255.003,435.007C255.022,434.72 254.89,434.375 255.071,434.162C255.158,434.059 255.237,433.964 255.308,433.875C255.51,433.997 255.959,434.022 256.82,433.838C256.803,433.576 257.002,433.348 257.264,433.331C257.527,433.314 257.754,433.513 257.771,433.775C258.575,433.839 259.017,433.776 259.231,433.655C259.325,433.749 259.431,433.852 259.549,433.964C259.721,434.126 259.619,434.429 259.632,434.669C259.772,437.324 258.92,440.237 257.678,443.02C255.725,447.397 252.483,451.46 249.039,453.85C248.006,454.565 245.866,455.654 243.659,456.605C241.479,457.544 239.242,458.359 237.995,458.627C235.62,459.134 232.96,459.101 230.352,458.665C227.827,458.243 225.353,457.469 223.258,456.522C221.628,455.783 219.996,454.892 218.455,453.858C216.933,452.836 215.5,451.69 214.178,450.522C213.861,450.211 212.872,449.548 212.41,448.795C212.144,448.362 211.848,447.979 211.97,447.645C212.092,447.311 211.947,447.349 212.214,447.184C212.214,446.898 212.446,446.667 212.731,446.667C212.997,446.667 213.216,446.868 213.245,447.125Z" style="fill:rgb(67,163,200);"/>
        </g>
    </g>
</svg>
