<?xml version="1.0" encoding="UTF-8" standalone="no"?>
<!DOCTYPE svg PUBLIC "-//W3C//DTD SVG 1.1//EN" "http://www.w3.org/Graphics/SVG/1.1/DTD/svg11.dtd">
<svg width="100%" height="100%" viewBox="0 0 543 172" version="1.1" xmlns="http://www.w3.org/2000/svg" xmlns:xlink="http://www.w3.org/1999/xlink" xml:space="preserve" xmlns:serif="http://www.serif.com/" style="fill-rule:evenodd;clip-rule:evenodd;stroke-linejoin:round;stroke-miterlimit:2;">
    <g transform="matrix(1.71969,0,0,1.71969,-1053.63,-2208.01)">
        <path d="M630.12,1351.7C630.12,1351.7 624.558,1356.51 617.731,1354.48C610.905,1352.46 610.36,1347.51 620.114,1346.44C629.867,1345.38 630.367,1345.33 630.367,1345.33C630.367,1345.33 625.063,1336.79 633.407,1327.68C641.75,1318.58 653.38,1324.14 653.38,1324.14C653.38,1324.14 648.576,1305.43 655.908,1298.36C663.24,1291.28 672.847,1293.55 672.847,1293.55C672.847,1293.55 673.353,1282.17 685.742,1284.2C698.13,1286.22 700.911,1302.15 700.911,1302.15C700.911,1302.15 709.254,1296.59 715.575,1303.41C721.896,1310.24 723.982,1312.49 723.982,1312.49C723.982,1312.49 726.194,1309.48 729.48,1309.23L732.767,1308.97C732.767,1308.97 728.722,1303.66 737.065,1296.59C745.409,1289.51 750.465,1293.81 750.465,1293.81C750.465,1293.81 758.05,1288.5 767.91,1294.06L777.77,1299.62C777.77,1299.62 774.231,1292.29 781.815,1293.3C789.4,1294.31 791.423,1301.64 786.619,1301.64L781.815,1301.64C781.815,1301.64 789.4,1304.93 787.378,1312.26C785.355,1319.59 784.128,1324.04 784.128,1324.04C784.128,1324.04 785.861,1319.34 795.215,1323.64C804.57,1327.94 805.834,1331.22 805.834,1331.22C805.834,1331.22 804.317,1324.14 813.419,1322.63C822.52,1321.11 829.6,1329.2 829.6,1334.26L829.6,1339.31C829.6,1339.31 829.852,1333.5 840.218,1334C850.584,1334.51 849.067,1339.31 849.067,1339.31C849.067,1339.31 848.056,1330.72 859.686,1328.69C871.316,1326.67 873.591,1333.75 873.591,1333.75C873.591,1333.75 873.998,1327.94 877.285,1327.94C880.572,1327.94 885.628,1329.71 884.111,1332.99L882.594,1336.28C882.594,1336.28 889.421,1327.18 898.775,1332.23C908.13,1337.29 913.945,1345.63 913.945,1345.63C913.945,1345.63 920.265,1342.09 925.322,1343.11C930.378,1344.12 930.378,1351.2 921.024,1352.21C911.669,1353.22 907.877,1351.45 907.877,1351.45C907.877,1351.45 899.281,1363.59 888.156,1360.55C877.032,1357.52 876.526,1355.24 876.526,1355.24C876.526,1355.24 874.504,1359.29 870.459,1357.77L866.413,1356.25C866.413,1356.25 867.172,1358.53 864.644,1359.03C862.115,1359.54 855.795,1355.49 855.795,1355.49C855.795,1355.49 853.519,1362.07 844.923,1362.57C836.327,1363.08 834.81,1359.03 834.81,1359.03C834.81,1359.03 830.259,1366.37 821.41,1363.33L812.562,1360.3C812.562,1360.3 809.528,1372.94 799.162,1369.65L788.796,1366.37C788.796,1366.37 780.958,1373.7 776.913,1366.87C772.868,1360.05 772.535,1359.48 772.535,1359.48C772.535,1359.48 764.525,1360.3 756.94,1359.79C749.355,1359.29 745.697,1359.04 745.697,1359.04C745.697,1359.04 750.366,1360.55 747.838,1363.59C745.31,1366.62 739.748,1368.89 739.748,1368.89C739.748,1368.89 743.034,1378.25 724.325,1382.8C705.616,1387.35 698.031,1377.49 698.031,1377.49C698.031,1377.49 683.873,1377.24 679.828,1368.89C675.783,1360.55 675.024,1350.44 675.024,1350.44C675.024,1350.44 668.198,1353.22 663.394,1352.21C658.591,1351.2 654.04,1347.66 654.04,1347.66C654.04,1347.66 651.259,1355.24 644.938,1355.49C638.617,1355.75 630.12,1351.7 630.12,1351.7Z" style="fill:rgb(26,60,98);"/>
        <clipPath id="_clip1">
            <path d="M630.12,1351.7C630.12,1351.7 624.558,1356.51 617.731,1354.48C610.905,1352.46 610.36,1347.51 620.114,1346.44C629.867,1345.38 630.367,1345.33 630.367,1345.33C630.367,1345.33 625.063,1336.79 633.407,1327.68C641.75,1318.58 653.38,1324.14 653.38,1324.14C653.38,1324.14 648.576,1305.43 655.908,1298.36C663.24,1291.28 672.847,1293.55 672.847,1293.55C672.847,1293.55 673.353,1282.17 685.742,1284.2C698.13,1286.22 700.911,1302.15 700.911,1302.15C700.911,1302.15 709.254,1296.59 715.575,1303.41C721.896,1310.24 723.982,1312.49 723.982,1312.49C723.982,1312.49 726.194,1309.48 729.48,1309.23L732.767,1308.97C732.767,1308.97 728.722,1303.66 737.065,1296.59C745.409,1289.51 750.465,1293.81 750.465,1293.81C750.465,1293.81 758.05,1288.5 767.91,1294.06L777.77,1299.62C777.77,1299.62 774.231,1292.29 781.815,1293.3C789.4,1294.31 791.423,1301.64 786.619,1301.64L781.815,1301.64C781.815,1301.64 789.4,1304.93 787.378,1312.26C785.355,1319.59 784.128,1324.04 784.128,1324.04C784.128,1324.04 785.861,1319.34 795.215,1323.64C804.57,1327.94 805.834,1331.22 805.834,1331.22C805.834,1331.22 804.317,1324.14 813.419,1322.63C822.52,1321.11 829.6,1329.2 829.6,1334.26L829.6,1339.31C829.6,1339.31 829.852,1333.5 840.218,1334C850.584,1334.51 849.067,1339.31 849.067,1339.31C849.067,1339.31 848.056,1330.72 859.686,1328.69C871.316,1326.67 873.591,1333.75 873.591,1333.75C873.591,1333.75 873.998,1327.94 877.285,1327.94C880.572,1327.94 885.628,1329.71 884.111,1332.99L882.594,1336.28C882.594,1336.28 889.421,1327.18 898.775,1332.23C908.13,1337.29 913.945,1345.63 913.945,1345.63C913.945,1345.63 920.265,1342.09 925.322,1343.11C930.378,1344.12 930.378,1351.2 921.024,1352.21C911.669,1353.22 907.877,1351.45 907.877,1351.45C907.877,1351.45 899.281,1363.59 888.156,1360.55C877.032,1357.52 876.526,1355.24 876.526,1355.24C876.526,1355.24 874.504,1359.29 870.459,1357.77L866.413,1356.25C866.413,1356.25 867.172,1358.53 864.644,1359.03C862.115,1359.54 855.795,1355.49 855.795,1355.49C855.795,1355.49 853.519,1362.07 844.923,1362.57C836.327,1363.08 834.81,1359.03 834.81,1359.03C834.81,1359.03 830.259,1366.37 821.41,1363.33L812.562,1360.3C812.562,1360.3 809.528,1372.94 799.162,1369.65L788.796,1366.37C788.796,1366.37 780.958,1373.7 776.913,1366.87C772.868,1360.05 772.535,1359.48 772.535,1359.48C772.535,1359.48 764.525,1360.3 756.94,1359.79C749.355,1359.29 745.697,1359.04 745.697,1359.04C745.697,1359.04 750.366,1360.55 747.838,1363.59C745.31,1366.62 739.748,1368.89 739.748,1368.89C739.748,1368.89 743.034,1378.25 724.325,1382.8C705.616,1387.35 698.031,1377.49 698.031,1377.49C698.031,1377.49 683.873,1377.24 679.828,1368.89C675.783,1360.55 675.024,1350.44 675.024,1350.44C675.024,1350.44 668.198,1353.22 663.394,1352.21C658.591,1351.2 654.04,1347.66 654.04,1347.66C654.04,1347.66 651.259,1355.24 644.938,1355.49C638.617,1355.75 630.12,1351.7 630.12,1351.7Z"/>
        </clipPath>
        <g clip-path="url(#_clip1)">
            <g transform="matrix(0.5815,0,0,0.5815,-125.69,1119.89)">
                <path d="M1449.14,405.427C1447.46,405.55 1445.65,404.849 1443.89,403.805C1441.35,402.299 1438.98,400.08 1437.38,398.623C1433.39,394.859 1430.94,390.769 1429.97,386.618C1429.2,383.345 1429.34,380.034 1430.27,376.912C1432.29,370.111 1438.05,364.138 1446.26,360.402C1446.65,360.202 1447.14,360.364 1447.34,360.764C1447.54,361.163 1447.38,361.649 1446.98,361.849C1439.77,365.784 1435.05,371.537 1433.4,377.789C1432.71,380.446 1432.58,383.183 1433.08,385.973C1433.76,389.741 1435.5,393.603 1438.74,397.305C1440.1,398.918 1442.11,401.353 1444.35,403.146C1445.89,404.382 1447.52,405.309 1449.14,405.427Z" style="fill:rgb(63,154,191);"/>
            </g>
            <g transform="matrix(0.5815,0,0,0.5815,-125.69,1119.89)">
                <path d="M1643.23,376.566C1643.11,375.909 1643.51,375.077 1644.09,374.221C1644.91,373.023 1646.09,371.922 1646.64,371.408C1647.83,370.387 1649.08,369.552 1650.46,368.918C1651.38,368.497 1652.35,368.179 1653.34,367.96C1654.78,367.641 1656.27,367.521 1657.76,367.506C1659.95,367.484 1662.11,367.738 1664.24,367.957C1664.68,367.957 1665.05,368.32 1665.05,368.766C1665.05,369.213 1664.68,369.575 1664.24,369.575C1661.4,369.835 1658.53,370.296 1655.68,370.852C1654.33,371.117 1652.99,371.401 1651.67,371.768C1650.35,372.136 1649.04,372.466 1647.78,373.106C1647.05,373.438 1645.38,374.234 1644.26,375.183C1643.72,375.642 1643.31,376.092 1643.23,376.566Z" style="fill:rgb(63,154,191);"/>
            </g>
            <g transform="matrix(0.5815,0,0,0.5815,-125.69,1119.89)">
                <path d="M1441.62,366.688C1440.02,364.408 1437.96,361.705 1436.61,358.798C1436.03,357.544 1435.62,356.265 1435.42,355.026C1435.27,354.047 1435.26,353.084 1435.41,352.191C1435.99,348.829 1438.39,346.109 1444.23,345.797C1444.67,345.737 1445.08,346.047 1445.14,346.49C1445.2,346.932 1444.89,347.34 1444.45,347.4C1440.37,348.303 1438.88,350.186 1438.67,352.614C1438.62,353.256 1438.64,353.927 1438.69,354.63C1438.78,355.691 1438.94,356.8 1439.18,357.946C1439.82,360.991 1440.78,364.119 1441.62,366.688Z" style="fill:rgb(63,154,191);"/>
            </g>
            <g transform="matrix(0.5815,0,0,0.5815,-126.425,1118.05)">
                <path d="M1301,386.805C1300.73,386.739 1300.52,386.437 1300.34,386.042C1299.98,385.265 1299.78,384.131 1299.68,383.749C1299.32,382.385 1299.11,380.926 1298.98,379.429C1298.8,377.225 1298.81,374.975 1298.8,372.907C1298.83,370.429 1299.49,368.265 1300.55,366.266C1301.56,364.335 1302.98,362.593 1304.51,360.862C1307.19,358.07 1310.87,355.65 1315.01,353.889C1320.87,351.387 1327.56,350.129 1333,349.857C1333.44,349.816 1333.84,350.144 1333.88,350.589C1333.92,351.034 1333.59,351.428 1333.14,351.468C1328.8,352.052 1323.73,353.483 1318.95,355.496C1316.21,356.651 1313.58,358.023 1311.24,359.561C1309.6,360.646 1308.07,361.787 1306.82,363.073C1305.03,364.804 1303.39,366.567 1302.26,368.633C1301.54,369.959 1301,371.389 1300.8,373.036C1300.54,375.051 1300.24,377.241 1300.12,379.412C1300.04,380.867 1300.03,382.297 1300.18,383.655C1300.23,384.043 1300.25,385.179 1300.48,385.989C1300.59,386.389 1300.76,386.704 1301,386.805Z" style="fill:rgb(63,154,191);"/>
            </g>
            <g transform="matrix(0.5815,0,0,0.5815,-125.69,1119.89)">
                <path d="M1340.43,351.179C1340.39,350.624 1340.29,350.06 1340.16,349.487C1339.85,348.17 1339.38,346.836 1339.14,345.577C1338.74,343.404 1338.37,341.234 1338.07,339.043C1337.76,336.847 1337.52,334.651 1337.33,332.443C1336.9,326.379 1336.06,322.505 1336.76,318.537C1337.24,315.841 1338.43,313.131 1340.78,309.753C1343.09,306.581 1345.65,304.12 1348.22,302.226C1354.05,297.931 1359.78,296.498 1361.81,295.109C1362.17,294.844 1362.68,294.92 1362.94,295.279C1363.21,295.638 1363.13,296.145 1362.77,296.411C1360.88,297.927 1355.41,299.824 1349.93,304.402C1347.68,306.277 1345.42,308.604 1343.44,311.605C1341.42,314.516 1340.44,316.854 1339.94,319.161C1339.13,322.901 1339.57,326.598 1339.55,332.369C1339.51,334.554 1339.52,336.732 1339.58,338.918C1339.64,341.113 1339.73,343.296 1339.87,345.485C1339.95,346.751 1340.24,348.12 1340.38,349.451C1340.44,350.041 1340.46,350.619 1340.43,351.179Z" style="fill:rgb(63,154,191);"/>
            </g>
        </g>
    </g>
</svg>
