<?xml version="1.0" encoding="UTF-8" standalone="no"?>
<!DOCTYPE svg PUBLIC "-//W3C//DTD SVG 1.1//EN" "http://www.w3.org/Graphics/SVG/1.1/DTD/svg11.dtd">
<svg width="100%" height="100%" viewBox="0 0 568 250" version="1.1" xmlns="http://www.w3.org/2000/svg" xmlns:xlink="http://www.w3.org/1999/xlink" xml:space="preserve" xmlns:serif="http://www.serif.com/" style="fill-rule:evenodd;clip-rule:evenodd;stroke-linejoin:round;stroke-miterlimit:2;">
    <g transform="matrix(2.79137,0,0,2.79137,-615.379,-1831.73)">
        <path d="M385.307,734.33C385.307,734.33 388.138,732.308 384.498,728.667L380.857,725.026C380.857,725.026 389.959,709.655 381.666,705.205C373.373,700.755 368.721,699.542 367.103,700.553C365.485,701.564 364.358,702.269 364.358,702.269C364.358,702.269 357.395,700.148 354.563,704.396C351.731,708.643 350.736,710.137 350.736,710.137C350.736,710.137 346.068,706.014 343.843,705.407C341.618,704.8 341.19,704.684 341.19,704.684C341.19,704.684 346.877,701.362 346.675,696.103C346.473,690.844 342.023,685.586 340.203,685.383C338.382,685.181 334.786,684.781 334.786,684.781C334.786,684.781 330.899,678.102 325.842,678.709C320.785,679.315 318.358,683.765 318.358,683.765C318.358,683.765 316.133,678.911 311.077,679.113C306.02,679.315 304.203,679.388 304.203,679.388C304.203,679.388 314.718,661.314 297.93,657.269C281.142,653.224 273.456,661.516 274.265,670.011C275.075,678.506 278.108,680.731 278.108,680.731C278.108,680.731 274.063,686.395 275.681,689.428C277.299,692.462 277.551,692.935 277.551,692.935C277.551,692.935 265.973,695.901 270.22,704.396C274.468,712.891 274.872,713.7 274.872,713.7C274.872,713.7 273.052,710.868 269.209,712.486C265.366,714.104 265.366,715.925 265.366,715.925C265.366,715.925 264.152,709.857 255.253,709.048C246.353,708.239 253.643,726.756 253.643,726.756C253.643,726.756 242.511,719.161 238.465,724.015C234.42,728.869 232.802,734.735 232.802,734.735C232.802,734.735 233.409,738.376 227.543,738.578C221.678,738.78 220.464,733.319 220.464,733.319C220.464,733.319 220.06,741.005 225.723,743.23C231.386,745.455 251.208,745.859 251.208,745.859L318.965,742.421C318.965,742.421 399.06,741.005 412.207,742.016C425.354,743.028 427.781,737.971 417.871,737.364C407.96,736.758 385.307,734.33 385.307,734.33Z" style="fill:rgb(26,60,98);"/>
        <clipPath id="_clip1">
            <path d="M385.307,734.33C385.307,734.33 388.138,732.308 384.498,728.667L380.857,725.026C380.857,725.026 389.959,709.655 381.666,705.205C373.373,700.755 368.721,699.542 367.103,700.553C365.485,701.564 364.358,702.269 364.358,702.269C364.358,702.269 357.395,700.148 354.563,704.396C351.731,708.643 350.736,710.137 350.736,710.137C350.736,710.137 346.068,706.014 343.843,705.407C341.618,704.8 341.19,704.684 341.19,704.684C341.19,704.684 346.877,701.362 346.675,696.103C346.473,690.844 342.023,685.586 340.203,685.383C338.382,685.181 334.786,684.781 334.786,684.781C334.786,684.781 330.899,678.102 325.842,678.709C320.785,679.315 318.358,683.765 318.358,683.765C318.358,683.765 316.133,678.911 311.077,679.113C306.02,679.315 304.203,679.388 304.203,679.388C304.203,679.388 314.718,661.314 297.93,657.269C281.142,653.224 273.456,661.516 274.265,670.011C275.075,678.506 278.108,680.731 278.108,680.731C278.108,680.731 274.063,686.395 275.681,689.428C277.299,692.462 277.551,692.935 277.551,692.935C277.551,692.935 265.973,695.901 270.22,704.396C274.468,712.891 274.872,713.7 274.872,713.7C274.872,713.7 273.052,710.868 269.209,712.486C265.366,714.104 265.366,715.925 265.366,715.925C265.366,715.925 264.152,709.857 255.253,709.048C246.353,708.239 253.643,726.756 253.643,726.756C253.643,726.756 242.511,719.161 238.465,724.015C234.42,728.869 232.802,734.735 232.802,734.735C232.802,734.735 233.409,738.376 227.543,738.578C221.678,738.78 220.464,733.319 220.464,733.319C220.464,733.319 220.06,741.005 225.723,743.23C231.386,745.455 251.208,745.859 251.208,745.859L318.965,742.421C318.965,742.421 399.06,741.005 412.207,742.016C425.354,743.028 427.781,737.971 417.871,737.364C407.96,736.758 385.307,734.33 385.307,734.33Z"/>
        </clipPath>
        <g clip-path="url(#_clip1)">
            <g transform="matrix(0.358247,0,0,0.358247,275.118,511.821)">
                <path d="M189.472,538.348C189.4,537.423 189.824,536.139 190.512,534.656C191.646,532.212 193.472,529.265 194.942,526.607C196.065,524.576 196.997,522.774 196.983,521.568C197.036,517.507 196.771,513.957 196.445,510.763C196.041,506.805 195.424,503.418 194.401,500.362C192.853,495.74 190.571,491.858 187.434,487.981C187.138,487.647 187.169,487.135 187.504,486.839C187.838,486.543 188.35,486.575 188.646,486.909C193.187,491.637 196.511,496.446 198.378,502.972C199.172,505.747 199.715,508.835 199.888,512.334C200.028,515.164 199.863,518.258 199.573,521.687C199.464,522.745 198.867,524.157 197.87,525.692C195.113,529.936 189.673,535.506 189.472,538.348Z" style="fill:rgb(63,154,191);"/>
            </g>
            <g transform="matrix(0.358247,0,0,0.358247,270.341,511.644)">
                <path d="M56.509,565.331C56.291,565.252 56.216,564.847 56.206,564.328C56.19,563.39 56.412,562.111 56.454,561.835C56.751,560.007 57.277,558.298 58.13,556.756C59.031,555.126 60.323,553.774 62,552.669C63.777,551.588 65.717,550.849 67.76,550.516C69.086,550.3 70.453,550.262 71.816,550.369C76.753,550.759 81.663,552.896 85.459,555.528C85.84,555.761 85.961,556.259 85.728,556.64C85.495,557.021 84.997,557.141 84.616,556.909C81.479,555.251 77.676,554.132 73.859,553.74C72.035,553.552 70.217,553.567 68.441,553.773C66.669,553.978 64.931,554.32 63.319,555.099C61.836,555.748 60.654,556.672 59.692,557.824C58.661,559.061 57.852,560.473 57.238,562.049C57.137,562.3 56.642,563.461 56.449,564.352C56.347,564.826 56.327,565.212 56.509,565.331Z" style="fill:rgb(63,154,191);"/>
            </g>
            <g transform="matrix(0.358247,0,0,0.358247,270.341,511.644)">
                <path d="M79.718,594.959C79.678,593.686 80.169,592.242 80.885,590.826C81.935,588.751 83.469,586.746 84.537,585.445C87.976,581.277 92.069,577.825 96.615,575.101C101.191,572.36 106.22,570.376 111.476,569.109C120.987,566.9 130.886,566.793 140.551,568.638C146.891,569.849 153.122,571.907 159.067,574.618C173.935,581.398 187.023,592.337 195.926,605.24C196.185,605.604 196.101,606.109 195.738,606.369C195.374,606.628 194.868,606.544 194.609,606.181C185.534,593.904 172.385,583.836 157.776,577.524C152.001,575.028 145.997,573.138 139.908,571.894C130.646,570.002 121.177,569.609 111.975,571.43C106.858,572.397 101.936,574.085 97.394,576.484C92.819,578.9 88.631,582.021 85.044,585.888C83.913,587.102 82.281,588.979 81.122,590.955C80.328,592.307 79.757,593.701 79.718,594.959Z" style="fill:rgb(63,154,191);"/>
            </g>
            <g transform="matrix(0.358247,0,0,0.358247,270.341,511.644)">
                <path d="M43.762,589.208C40.222,589.455 37.396,591.792 35.181,594.923C32.006,599.409 30.164,605.548 29.897,609.593C29.746,611.045 29.759,613.128 30.226,614.943C30.486,615.952 30.848,616.898 31.571,617.469C33.475,619.023 36.099,619.763 38.899,620.143C43.338,620.745 48.204,620.43 51.757,620.209C52.201,620.162 52.6,620.485 52.647,620.929C52.693,621.373 52.371,621.771 51.927,621.818C48.273,622.361 43.265,623.168 38.627,622.87C35.206,622.65 32.012,621.778 29.602,620.024C28.321,619.061 27.461,617.526 27.01,615.771C26.439,613.553 26.513,610.995 26.741,609.225C27.468,604.894 29.993,598.38 33.989,593.967C36.703,590.97 40.03,588.948 43.762,589.208Z" style="fill:rgb(0,22,47);"/>
            </g>
            <g transform="matrix(0.358247,0,0,0.358247,270.341,511.644)">
                <path d="M94.681,467.803C94.813,467.306 95.032,466.809 95.292,466.309C95.868,465.202 96.643,464.106 97.096,463.055C97.731,461.597 98.231,460.075 98.645,458.52C99.059,456.968 99.375,455.395 99.631,453.833C100.339,449.853 100.793,444.293 100.773,439.037C100.759,435.526 100.562,432.153 99.821,429.52C99.074,426.539 98.275,424.41 97.252,422.378C96.206,420.298 94.944,418.314 93.252,415.68C91.775,413.331 87.642,411.54 85.576,409.616C84.636,408.74 84.054,407.834 84.019,406.901C83.984,406.456 84.317,406.066 84.762,406.032C85.207,405.997 85.597,406.33 85.632,406.775C85.697,407.323 86.172,407.763 86.766,408.236C89.135,410.123 93.619,411.827 95.389,414.221C97.301,416.86 98.744,418.84 99.932,420.952C101.151,423.121 102.093,425.427 103.026,428.656C103.774,431.56 104.059,435.265 103.865,439.109C103.591,444.527 102.462,450.193 101.381,454.222C100.936,455.793 100.433,457.368 99.825,458.909C99.217,460.449 98.519,461.944 97.693,463.358C97.103,464.361 96.186,465.37 95.464,466.413C95.147,466.871 94.871,467.332 94.681,467.803Z" style="fill:rgb(63,154,191);"/>
            </g>
            <g transform="matrix(0.358247,0,0,0.358247,270.341,511.644)">
                <path d="M320.4,621.945C320.954,620.332 321.781,619.177 322.256,617.786C322.521,617.012 322.617,616.184 322.466,615.124C322.346,614.12 321.863,613.308 321.306,612.53C320.37,611.226 319.067,610.139 317.898,609.084C317.234,608.391 316.525,607.537 315.848,606.553C314.768,604.984 313.702,603.13 312.628,601.37C311.501,599.524 310.434,597.772 309.262,596.647C308.915,596.365 308.862,595.855 309.144,595.509C309.425,595.162 309.935,595.11 310.282,595.391C311.422,596.168 312.595,597.327 313.764,598.672C315.132,600.246 316.494,602.039 317.754,603.688C318.65,604.86 319.466,605.966 320.272,606.765C321.438,608.121 322.781,609.525 323.589,611.16C324.189,612.373 324.553,613.662 324.438,615.086C324.297,616.448 323.931,617.453 323.353,618.326C322.522,619.583 321.382,620.498 320.4,621.945Z" style="fill:rgb(63,154,191);"/>
            </g>
            <g transform="matrix(0.358247,0,0,0.358247,268.452,510.564)">
                <path d="M140.949,570.763C140.698,565.978 142.38,560.245 145.238,555.187C148.213,549.922 152.483,545.48 156.957,543.377C159.96,542.043 163.125,541.204 166.319,540.948C171.204,540.558 176.136,541.429 180.533,543.356C187.817,546.548 193.664,552.661 195.753,560.912C195.876,561.341 195.627,561.789 195.198,561.912C194.768,562.034 194.32,561.785 194.198,561.356C191.835,553.944 186.154,548.78 179.381,546.14C175.364,544.574 170.961,543.94 166.572,544.258C163.71,544.466 160.846,545.026 158.115,546.12C153.895,547.707 149.816,551.555 146.672,556.087C143.443,560.741 141.194,566.097 140.949,570.763Z" style="fill:rgb(63,154,191);"/>
            </g>
        </g>
    </g>
</svg>
